{
  "source": "C:\\Users\\Peter\\Desktop\\stuff\\MIUN\\quantitative_research\\video_compression\\videos\\BVI-HD\\BVI-HD_CDVL_videos\\ORIG\\BubblesPitcher_1920x1080_60fps.mp4",
  "output": "C:\\Users\\Peter\\Desktop\\stuff\\MIUN\\quantitative_research\\video_compression\\compressed_videos\\BVI-HD\\vp9\\3\\BubblesPitcher_1920x1080_60fps_vp9.webm",
  "codec": "vp9",
  "ok": "Input #0, mov,mp4,m4a,3gp,3g2,mj2, from 'C:\\Users\\Peter\\Desktop\\stuff\\MIUN\\quantitative_research\\video_compression\\videos\\BVI-HD\\BVI-HD_CDVL_videos\\ORIG\\BubblesPitcher_1920x1080_60fps.mp4':\n  Metadata:\n    major_brand     : isom\n    minor_version   : 512\n    compatible_brands: isomiso2avc1mp41\n    encoder         : Lavf54.28.101\n  Duration: 00:00:05.00, start: 0.000000, bitrate: 188849 kb/s\n  Stream #0:0[0x1](und): Video: h264 (High 4:4:4 Predictive) (avc1 / 0x31637661), yuv420p(progressive), 1920x1080, 188844 kb/s, 60 fps, 60 tbr, 60 tbn (default)\n    Metadata:\n      handler_name    : VideoHandler\n      vendor_id       : [0][0][0][0]\n[out#0/webm @ 000002876bcfcc80] Codec AVOption b:a (set bitrate (in bits/s)) has not been used for any stream. The most likely reason is either wrong type (e.g. a video option with no video streams) or that it is a private option of some decoder which was not actually used for any stream.\nStream mapping:\n  Stream #0:0 -> #0:0 (h264 (native) -> vp9 (libvpx-vp9))\nPress [q] to stop, [?] for help\n[libvpx-vp9 @ 000002876c1f5480] v1.15.2-100-g40561f514\nOutput #0, webm, to 'C:\\Users\\Peter\\Desktop\\stuff\\MIUN\\quantitative_research\\video_compression\\compressed_videos\\BVI-HD\\vp9\\3\\BubblesPitcher_1920x1080_60fps_vp9.webm':\n  Metadata:\n    major_brand     : isom\n    minor_version   : 512\n    compatible_brands: isomiso2avc1mp41\n    encoder         : Lavf62.3.100\n  Stream #0:0(und): Video: vp9, yuv420p(tv, progressive), 1920x1080, q=2-31, 3000 kb/s, 60 fps, 1k tbn (default)\n    Metadata:\n      encoder         : Lavc62.11.100 libvpx-vp9\n      handler_name    : VideoHandler\n      vendor_id       : [0][0][0][0]\n    Side data:\n      cpb: bitrate max/min/avg: 0/0/0 buffer size: 3000000 vbv_delay: N/A\nframe=    0 fps=0.0 q=0.0 size=       0KiB time=N/A bitrate=N/A speed=N/A elapsed=0:00:00.52    \nframe=    8 fps=7.1 q=31.0 size=       1KiB time=00:00:00.13 bitrate=  38.0kbits/s speed=0.118x elapsed=0:00:01.13    \nframe=   13 fps=7.8 q=14.0 size=       1KiB time=00:00:00.21 bitrate=  23.4kbits/s speed=0.131x elapsed=0:00:01.65    \nframe=   18 fps=8.2 q=25.0 size=       1KiB time=00:00:00.30 bitrate=  16.9kbits/s speed=0.137x elapsed=0:00:02.18    \nframe=   24 fps=8.9 q=27.0 size=       1KiB time=00:00:00.38 bitrate=  13.2kbits/s speed=0.142x elapsed=0:00:02.69    \nframe=   27 fps=8.2 q=29.0 size=       1KiB time=00:00:00.45 bitrate=  11.3kbits/s speed=0.136x elapsed=0:00:03.29    \nframe=   31 fps=7.7 q=31.0 size=       1KiB time=00:00:00.51 bitrate=   9.8kbits/s speed=0.129x elapsed=0:00:04.01    \nframe=   36 fps=7.8 q=33.0 size=       1KiB time=00:00:00.60 bitrate=   8.4kbits/s speed=0.13x elapsed=0:00:04.63    \nframe=   39 fps=7.5 q=31.0 size=       1KiB time=00:00:00.63 bitrate=   8.0kbits/s speed=0.122x elapsed=0:00:05.21    \nframe=   44 fps=7.5 q=33.0 size=       1KiB time=00:00:00.73 bitrate=   6.9kbits/s speed=0.125x elapsed=0:00:05.88    \nframe=   48 fps=7.4 q=34.0 size=       1KiB time=00:00:00.80 bitrate=   6.3kbits/s speed=0.123x elapsed=0:00:06.50    \nframe=   51 fps=7.1 q=34.0 size=       1KiB time=00:00:00.85 bitrate=   6.0kbits/s speed=0.119x elapsed=0:00:07.16    \nframe=   56 fps=7.3 q=36.0 size=       1KiB time=00:00:00.93 bitrate=   5.4kbits/s speed=0.121x elapsed=0:00:07.71    \nframe=   61 fps=7.4 q=21.0 size=       1KiB time=00:00:01.00 bitrate=   5.1kbits/s speed=0.121x elapsed=0:00:08.25    \nframe=   66 fps=7.5 q=34.0 size=       1KiB time=00:00:01.10 bitrate=   4.6kbits/s speed=0.125x elapsed=0:00:08.83    \nframe=   71 fps=7.6 q=34.0 size=       1KiB time=00:00:01.18 bitrate=   4.3kbits/s speed=0.126x elapsed=0:00:09.38    \nframe=   75 fps=7.6 q=35.0 size=       1KiB time=00:00:01.25 bitrate=   4.1kbits/s speed=0.126x elapsed=0:00:09.90    \nframe=   80 fps=7.6 q=36.0 size=       1KiB time=00:00:01.33 bitrate=   3.8kbits/s speed=0.127x elapsed=0:00:10.46    \nframe=   85 fps=7.7 q=21.0 size=       1KiB time=00:00:01.41 bitrate=   3.6kbits/s speed=0.129x elapsed=0:00:11.01    \nframe=   91 fps=7.9 q=36.0 size=       1KiB time=00:00:01.51 bitrate=   3.3kbits/s speed=0.131x elapsed=0:00:11.55    \nframe=   96 fps=7.9 q=36.0 size=       1KiB time=00:00:01.60 bitrate=   3.2kbits/s speed=0.132x elapsed=0:00:12.08    \nframe=  102 fps=8.1 q=37.0 size=       1KiB time=00:00:01.70 bitrate=   3.0kbits/s speed=0.134x elapsed=0:00:12.65    \nframe=  108 fps=8.2 q=37.0 size=       1KiB time=00:00:01.78 bitrate=   2.8kbits/s speed=0.135x elapsed=0:00:13.19    \nframe=  112 fps=8.1 q=37.0 size=       1KiB time=00:00:01.86 bitrate=   2.7kbits/s speed=0.136x elapsed=0:00:13.74    \nframe=  118 fps=8.3 q=36.0 size=       1KiB time=00:00:01.96 bitrate=   2.6kbits/s speed=0.138x elapsed=0:00:14.26    \nframe=  124 fps=8.4 q=35.0 size=       1KiB time=00:00:02.06 bitrate=   2.5kbits/s speed=0.139x elapsed=0:00:14.81    \nframe=  128 fps=8.3 q=37.0 size=       1KiB time=00:00:02.13 bitrate=   2.4kbits/s speed=0.139x elapsed=0:00:15.34    \nframe=  134 fps=8.4 q=42.0 size=     512KiB time=00:00:02.23 bitrate=1878.0kbits/s speed=0.141x elapsed=0:00:15.86    \nframe=  139 fps=8.5 q=45.0 size=     512KiB time=00:00:02.31 bitrate=1810.5kbits/s speed=0.141x elapsed=0:00:16.39    \nframe=  143 fps=8.4 q=48.0 size=     512KiB time=00:00:02.38 bitrate=1759.8kbits/s speed=0.141x elapsed=0:00:16.92    \nframe=  147 fps=8.4 q=50.0 size=     512KiB time=00:00:02.45 bitrate=1712.0kbits/s speed=0.14x elapsed=0:00:17.46    \nframe=  151 fps=8.4 q=51.0 size=     512KiB time=00:00:02.51 bitrate=1666.6kbits/s speed=0.14x elapsed=0:00:17.98    \nframe=  154 fps=8.3 q=50.0 size=     512KiB time=00:00:02.56 bitrate=1634.1kbits/s speed=0.138x elapsed=0:00:18.56    \nframe=  158 fps=8.3 q=51.0 size=     512KiB time=00:00:02.63 bitrate=1592.8kbits/s speed=0.138x elapsed=0:00:19.10    \nframe=  161 fps=8.2 q=52.0 size=     512KiB time=00:00:02.68 bitrate=1563.1kbits/s speed=0.137x elapsed=0:00:19.65    \nframe=  164 fps=8.1 q=37.0 size=     512KiB time=00:00:02.73 bitrate=1534.5kbits/s speed=0.135x elapsed=0:00:20.19    \nframe=  168 fps=8.1 q=53.0 size=     512KiB time=00:00:02.80 bitrate=1498.0kbits/s speed=0.135x elapsed=0:00:20.72    \nframe=  171 fps=8.0 q=55.0 size=     512KiB time=00:00:02.85 bitrate=1471.7kbits/s speed=0.134x elapsed=0:00:21.30    \nframe=  174 fps=8.0 q=56.0 size=     512KiB time=00:00:02.90 bitrate=1446.3kbits/s speed=0.133x elapsed=0:00:21.87    \nframe=  177 fps=7.9 q=56.0 size=     512KiB time=00:00:02.95 bitrate=1421.8kbits/s speed=0.132x elapsed=0:00:22.40    \nframe=  180 fps=7.8 q=57.0 size=     512KiB time=00:00:03.00 bitrate=1398.1kbits/s speed=0.131x elapsed=0:00:22.93    \nframe=  184 fps=7.8 q=58.0 size=     512KiB time=00:00:03.06 bitrate=1367.7kbits/s speed=0.131x elapsed=0:00:23.44    \nframe=  186 fps=7.8 q=58.0 size=     512KiB time=00:00:03.10 bitrate=1353.0kbits/s speed=0.129x elapsed=0:00:23.97    \nframe=  189 fps=7.7 q=61.0 size=     512KiB time=00:00:03.15 bitrate=1331.5kbits/s speed=0.128x elapsed=0:00:24.52    \nframe=  192 fps=7.7 q=60.0 size=     512KiB time=00:00:03.20 bitrate=1310.7kbits/s speed=0.128x elapsed=0:00:25.05    \nframe=  195 fps=7.6 q=60.0 size=     512KiB time=00:00:03.25 bitrate=1290.6kbits/s speed=0.127x elapsed=0:00:25.58    \nframe=  199 fps=7.6 q=60.0 size=     512KiB time=00:00:03.31 bitrate=1264.6kbits/s speed=0.127x elapsed=0:00:26.08    \nframe=  203 fps=7.6 q=61.0 size=     512KiB time=00:00:03.38 bitrate=1239.7kbits/s speed=0.127x elapsed=0:00:26.60    \nframe=  206 fps=7.6 q=47.0 size=     512KiB time=00:00:03.43 bitrate=1221.6kbits/s speed=0.127x elapsed=0:00:27.12    \nframe=  210 fps=7.6 q=61.0 size=     512KiB time=00:00:03.50 bitrate=1198.4kbits/s speed=0.127x elapsed=0:00:27.66    \nframe=  213 fps=7.5 q=61.0 size=     512KiB time=00:00:03.55 bitrate=1181.5kbits/s speed=0.126x elapsed=0:00:28.21    \nframe=  216 fps=7.5 q=61.0 size=     512KiB time=00:00:03.60 bitrate=1165.1kbits/s speed=0.125x elapsed=0:00:28.74    \nframe=  219 fps=7.5 q=61.0 size=     512KiB time=00:00:03.65 bitrate=1149.1kbits/s speed=0.125x elapsed=0:00:29.28    \nframe=  221 fps=7.4 q=61.0 size=     512KiB time=00:00:03.68 bitrate=1138.7kbits/s speed=0.123x elapsed=0:00:29.82    \nframe=  223 fps=7.3 q=61.0 size=     512KiB time=00:00:03.71 bitrate=1128.5kbits/s speed=0.122x elapsed=0:00:30.40    \nframe=  226 fps=7.3 q=61.0 size=     512KiB time=00:00:03.76 bitrate=1113.5kbits/s speed=0.122x elapsed=0:00:30.98    \nframe=  228 fps=7.2 q=61.0 size=     512KiB time=00:00:03.80 bitrate=1103.8kbits/s speed=0.121x elapsed=0:00:31.51    \nframe=  230 fps=7.2 q=48.0 size=     512KiB time=00:00:03.83 bitrate=1094.2kbits/s speed=0.12x elapsed=0:00:32.05    \nframe=  233 fps=7.1 q=61.0 size=     512KiB time=00:00:03.86 bitrate=1084.7kbits/s speed=0.119x elapsed=0:00:32.62    \nframe=  235 fps=7.1 q=61.0 size=     512KiB time=00:00:03.91 bitrate=1070.9kbits/s speed=0.118x elapsed=0:00:33.24    \nframe=  237 fps=7.0 q=61.0 size=     512KiB time=00:00:03.95 bitrate=1061.8kbits/s speed=0.117x elapsed=0:00:33.76    \nframe=  240 fps=7.0 q=61.0 size=     512KiB time=00:00:04.00 bitrate=1048.6kbits/s speed=0.117x elapsed=0:00:34.29    \nframe=  242 fps=6.9 q=46.0 size=     512KiB time=00:00:04.01 bitrate=1044.2kbits/s speed=0.115x elapsed=0:00:34.86    \nframe=  244 fps=6.9 q=61.0 size=     512KiB time=00:00:04.06 bitrate=1031.4kbits/s speed=0.115x elapsed=0:00:35.41    \nframe=  247 fps=6.9 q=61.0 size=     512KiB time=00:00:04.11 bitrate=1018.9kbits/s speed=0.114x elapsed=0:00:36.00    \nframe=  249 fps=6.8 q=59.0 size=     512KiB time=00:00:04.15 bitrate=1010.7kbits/s speed=0.114x elapsed=0:00:36.54    \nframe=  251 fps=6.8 q=59.0 size=     512KiB time=00:00:04.18 bitrate=1002.6kbits/s speed=0.113x elapsed=0:00:37.10    \nframe=  254 fps=6.7 q=60.0 size=     512KiB time=00:00:04.21 bitrate= 994.7kbits/s speed=0.112x elapsed=0:00:37.76    \nframe=  256 fps=6.7 q=60.0 size=     512KiB time=00:00:04.26 bitrate= 983.0kbits/s speed=0.111x elapsed=0:00:38.32    \nframe=  259 fps=6.7 q=61.0 size=    1280KiB time=00:00:04.31 bitrate=2429.1kbits/s speed=0.111x elapsed=0:00:38.93    \nframe=  262 fps=6.6 q=61.0 size=    1280KiB time=00:00:04.36 bitrate=2401.3kbits/s speed=0.11x elapsed=0:00:39.53    \nframe=  264 fps=6.6 q=61.0 size=    1280KiB time=00:00:04.40 bitrate=2383.1kbits/s speed=0.109x elapsed=0:00:40.21    \nframe=  266 fps=6.5 q=61.0 size=    1280KiB time=00:00:04.43 bitrate=2365.2kbits/s speed=0.109x elapsed=0:00:40.79    \nframe=  268 fps=6.5 q=61.0 size=    1280KiB time=00:00:04.46 bitrate=2347.6kbits/s speed=0.108x elapsed=0:00:41.34    \nframe=  271 fps=6.5 q=61.0 size=    1280KiB time=00:00:04.51 bitrate=2321.6kbits/s speed=0.108x elapsed=0:00:41.87    \nframe=  274 fps=6.5 q=61.0 size=    1280KiB time=00:00:04.56 bitrate=2296.2kbits/s speed=0.108x elapsed=0:00:42.43    \nframe=  276 fps=6.4 q=61.0 size=    1280KiB time=00:00:04.58 bitrate=2287.8kbits/s speed=0.106x elapsed=0:00:43.08    \nframe=  276 fps=6.3 q=61.0 size=    1280KiB time=00:00:04.60 bitrate=2279.5kbits/s speed=0.105x elapsed=0:00:43.71    \nframe=  276 fps=6.2 q=61.0 size=    1280KiB time=00:00:04.60 bitrate=2279.5kbits/s speed=0.104x elapsed=0:00:44.26    \nframe=  276 fps=6.2 q=61.0 size=    1280KiB time=00:00:04.60 bitrate=2279.5kbits/s speed=0.103x elapsed=0:00:44.83    \nframe=  276 fps=6.1 q=61.0 size=    1280KiB time=00:00:04.60 bitrate=2279.5kbits/s speed=0.101x elapsed=0:00:45.38    \nframe=  276 fps=6.0 q=61.0 size=    1280KiB time=00:00:04.60 bitrate=2279.5kbits/s speed= 0.1x elapsed=0:00:46.01    \nframe=  276 fps=5.9 q=61.0 size=    1280KiB time=00:00:04.60 bitrate=2279.5kbits/s speed=0.0985x elapsed=0:00:46.68    \nframe=  276 fps=5.8 q=61.0 size=    1280KiB time=00:00:04.60 bitrate=2279.5kbits/s speed=0.0974x elapsed=0:00:47.24    \nframe=  276 fps=5.8 q=61.0 size=    1280KiB time=00:00:04.60 bitrate=2279.5kbits/s speed=0.0962x elapsed=0:00:47.81    \nframe=  276 fps=5.7 q=61.0 size=    1280KiB time=00:00:04.60 bitrate=2279.5kbits/s speed=0.0951x elapsed=0:00:48.37    \nframe=  276 fps=5.6 q=61.0 size=    1280KiB time=00:00:04.60 bitrate=2279.5kbits/s speed=0.0937x elapsed=0:00:49.10    \nframe=  276 fps=5.5 q=61.0 size=    1280KiB time=00:00:04.60 bitrate=2279.5kbits/s speed=0.0925x elapsed=0:00:49.74    \n[out#0/webm @ 000002876bcfcc80] video:1622KiB audio:0KiB subtitle:0KiB other streams:0KiB global headers:0KiB muxing overhead: 0.170440%\nframe=  300 fps=6.0 q=61.0 Lsize=    1625KiB time=00:00:05.00 bitrate=2662.1kbits/s speed=0.0998x elapsed=0:00:50.11    \n",
  "seconds": 50.46464800834656,
  "probe_out": {}
}